<svg
   width="480px"
   height="480px"
   viewBox="0 0 10 10"
   version="1.1"
   id="svg1"
   xmlns="http://www.w3.org/2000/svg"
   xmlns:svg="http://www.w3.org/2000/svg">
  <defs
     id="defs1" />
  <g
     id="layer1">
    <path
       d="m 104.6, 60.9 c -49.3, 1.0e-4 -89.2, 39.9 -89.2, 89.2 -1.9e-4, 49.3 39.9, 89.2 89.2, 89.2 7.2, -0.1 14.4, -1.0 21.3, -2.8 6.6, -1.7 6.6, -5.9 0.6, -9.3 C 99.1, 211.6 81.7, 182.3 81.6, 150.1 81.7, 118.0 99.0, 88.8 126.3, 73.1 c 6.2, -3.6 6.3, -7.9 -0.7,-9.7 -6.9, -1.7 -14.0,-2.5 -21.1,-2.5 z"
       id="path12"
       transform="matrix(0.034634,0,0,0.034634,1.6507668,-0.30715347)" />
    <path
       id="path15"
       d="m 162.80568,205.60779 c -4.13342,0 -7.82369,-36.99006 -10.74646,-39.91283 -2.92277,-2.92277 -39.91283,-6.61303 -39.91283,-10.74646 0,-4.13342 36.99006,-7.82368 39.91283,-10.74646 2.92277,-2.92277 6.61303,-39.91282 10.74646,-39.91282 4.13342,0 7.82368,36.99005 10.74646,39.91282 2.92277,2.92278 39.91283,6.61304 39.91283,10.74646 0,4.13343 -36.99006,7.82369 -39.91283,10.74646 -2.92278,2.92277 -6.61303,39.91283 -10.74646,39.91283 z"
       transform="matrix(0.02208133,0,0,0.02208133,-2.2443415,-0.89631957)" />
    <path
       id="path16"
       d="m 162.80568,205.60779 c -4.13342,0 -7.82369,-36.99006 -10.74646,-39.91283 -2.92277,-2.92277 -39.91283,-6.61303 -39.91283,-10.74646 0,-4.13342 36.99006,-7.82368 39.91283,-10.74646 2.92277,-2.92277 6.61303,-39.91282 10.74646,-39.91282 4.13342,0 7.82368,36.99005 10.74646,39.91282 2.92277,2.92278 39.91283,6.61304 39.91283,10.74646 0,4.13343 -36.99006,7.82369 -39.91283,10.74646 -2.92278,2.92277 -6.61303,39.91283 -10.74646,39.91283 z"
       transform="matrix(0.02208133,0,0,0.02208133,4.5406335,-0.37438347)" />
    <path
       id="path17"
       d="m 162.80568,205.60779 c -4.13342,0 -7.82369,-36.99006 -10.74646,-39.91283 -2.92277,-2.92277 -39.91283,-6.61303 -39.91283,-10.74646 0,-4.13342 36.99006,-7.82368 39.91283,-10.74646 2.92277,-2.92277 6.61303,-39.91282 10.74646,-39.91282 4.13342,0 7.82368,36.99005 10.74646,39.91282 2.92277,2.92278 39.91283,6.61304 39.91283,10.74646 0,4.13343 -36.99006,7.82369 -39.91283,10.74646 -2.92278,2.92277 -6.61303,39.91283 -10.74646,39.91283 z"
       transform="matrix(0.02208133,0,0,0.02208133,3.785248,2.6411596)" />
  </g>
</svg>
