<?xml version="1.0" encoding="UTF-8" standalone="no"?>
<!-- Created with Inkscape (http://www.inkscape.org/) -->

<svg
   width="26.458332mm"
   height="26.458334mm"
   viewBox="0 0 26.458332 26.458334"
   version="1.1"
   id="svg1"
   xmlns="http://www.w3.org/2000/svg"
   xmlns:svg="http://www.w3.org/2000/svg">
  <defs
     id="defs1" />
  <g
     id="layer1"
     transform="translate(-52.916662,-211.66667)">
    <rect
       style="fill:#ff7b38;fill-opacity:0;stroke:none;stroke-width:1.13342;stroke-dasharray:none;stroke-opacity:1"
       id="rect5"
       width="26.458334"
       height="26.458334"
       x="52.916668"
       y="211.66667" />
    <path
       id="text4"
       style="font-style:normal;font-variant:normal;font-weight:500;font-stretch:normal;font-size:14.1111px;font-family:'Inter Variable';-inkscape-font-specification:'Inter Variable Medium';text-align:start;writing-mode:lr-tb;direction:ltr;text-anchor:start;fill:#f2f2f2;fill-opacity:1;stroke:none;stroke-width:0.529167;stroke-dasharray:none;stroke-opacity:1"
       d="m 40.681641,183.80859 a 0.23439704,0.23439704 0 0 0 -0.234375,0.23438 v 10.26758 a 0.23439704,0.23439704 0 0 0 0.234375,0.23437 h 1.53125 a 0.23439704,0.23439704 0 0 0 0.234375,-0.23437 v -4.29297 h 4.52539 a 0.23439704,0.23439704 0 0 0 0.234375,-0.23438 v -1.32226 a 0.23439704,0.23439704 0 0 0 -0.234375,-0.23438 h -4.52539 v -2.60547 h 4.917968 a 0.23439704,0.23439704 0 0 0 0.234375,-0.23437 v -1.34375 a 0.23439704,0.23439704 0 0 0 -0.234375,-0.23438 z"
       transform="matrix(1.9649854,0,0,1.9649854,-20.359525,-146.83378)" />
  </g>
</svg>
