<svg width="100" height="100" viewBox="0 0 100 100" version="1.1" xmlns="http://www.w3.org/2000/svg">
    <style>
        .favicon {
            fill: #000000;
        }
        @media (prefers-color-scheme: dark) {
            .favicon {
                fill: #ffffff;
            }
        }
    </style>
    <path
        class="favicon"
        transform="translate(-38.1,-53.710417)"
        fill-opacity="1"
        stroke="none"
        stroke-width="0"
        d="M 88.100489,53.710417 A 49.999809,50.009934 0 0 0 39.646186,91.381849 H 73.28199 v -7.848431 c 0,-10.843574 7.847626,-19.105379 22.715815,-19.105379 8.053595,0 13.938595,1.446009 18.791405,3.511449 l -4.54264,10.6366 c -3.71705,-1.445798 -7.74413,-2.065557 -11.66768,-2.065557 -6.50484,0 -9.085924,2.168776 -9.085924,7.538936 v 7.332382 h 17.862424 l -1.85862,11.359881 H 89.492966 v 50.96869 A 49.999809,50.009934 0 0 0 138.1,103.72004 49.999809,50.009934 0 0 0 88.100489,53.710417 Z M 38.11028,102.74173 A 49.999809,50.009934 0 0 0 38.1,103.72004 49.999809,50.009934 0 0 0 73.281668,151.48347 v -48.74174 z" />
</svg>
